<svg xmlns="http://www.w3.org/2000/svg" xmlns:xlink="http://www.w3.org/1999/xlink" viewBox="0 0 345.39 349.86"><defs><style>.cls-1{fill:url(#Nova_amostra_de_gradiente_5);}.cls-2,.cls-3{fill:#010d26;}.cls-3{font-size:35px;font-family:FjallaOne-Regular, Fjalla One;}.cls-4{fill:url(#Gradiente_sem_nome_20);}.cls-5{fill:url(#Gradiente_sem_nome_20-2);}.cls-6{fill:url(#Gradiente_sem_nome_20-3);}.cls-7{fill:url(#Gradiente_sem_nome_20-4);}.cls-8{fill:url(#Gradiente_sem_nome_20-5);}.cls-9{fill:url(#Gradiente_sem_nome_20-6);}.cls-10{fill:url(#Gradiente_sem_nome_5);}.cls-11{fill:url(#Gradiente_sem_nome_5-2);}</style><linearGradient id="Nova_amostra_de_gradiente_5" x1="117.96" y1="75" x2="117.96" y2="34.61" gradientUnits="userSpaceOnUse"><stop offset="0" stop-color="#48a1d9"/><stop offset="1" stop-color="#07418c"/></linearGradient><linearGradient id="Gradiente_sem_nome_20" x1="172.77" y1="7.07" x2="158.63" y2="7.07" gradientUnits="userSpaceOnUse"><stop offset="0" stop-color="#07418c"/><stop offset="1" stop-color="#48a1d9"/></linearGradient><linearGradient id="Gradiente_sem_nome_20-2" x1="82.02" y1="119.28" x2="187.03" y2="14.27" xlink:href="#Gradiente_sem_nome_20"/><linearGradient id="Gradiente_sem_nome_20-3" x1="272.94" y1="95.01" x2="96.04" y2="95.01" xlink:href="#Gradiente_sem_nome_20"/><linearGradient id="Gradiente_sem_nome_20-4" x1="127.75" y1="181.66" x2="87.75" y2="181.66" xlink:href="#Gradiente_sem_nome_20"/><linearGradient id="Gradiente_sem_nome_20-5" x1="77.75" y1="238.31" x2="77.75" y2="125.01" xlink:href="#Gradiente_sem_nome_20"/><linearGradient id="Gradiente_sem_nome_20-6" x1="152.75" y1="238.31" x2="152.75" y2="125.01" xlink:href="#Gradiente_sem_nome_20"/><linearGradient id="Gradiente_sem_nome_5" x1="184.04" y1="264.61" x2="236.64" y2="212.01" xlink:href="#Nova_amostra_de_gradiente_5"/><linearGradient id="Gradiente_sem_nome_5-2" x1="252.94" y1="238.31" x2="252.94" y2="133.43" xlink:href="#Nova_amostra_de_gradiente_5"/></defs><title>7Ativo 17</title><g id="Camada_2" data-name="Camada 2"><g id="Camada_1-2" data-name="Camada 1"><polygon class="cls-1" points="138.16 34.61 97.76 75 97.76 34.61 138.16 34.61"/><path class="cls-2" d="M0,251.68H9.18v19.65H20.05V251.68h9.18v46.94H20.05V276.93H9.18v21.69H0Z"/><path class="cls-2" d="M53,299a30.29,30.29,0,0,1-3.16-.18,14.82,14.82,0,0,1-3.36-.76,13.49,13.49,0,0,1-3.21-1.63,10.68,10.68,0,0,1-2.73-2.79,14.38,14.38,0,0,1-1.89-4.27,22.5,22.5,0,0,1-.71-6.06V266.71a21.85,21.85,0,0,1,.73-6.06,14,14,0,0,1,1.93-4.23,10.3,10.3,0,0,1,2.74-2.73,12.62,12.62,0,0,1,3.23-1.55,15.42,15.42,0,0,1,3.34-.7,28.73,28.73,0,0,1,3.09-.17c.89,0,1.89,0,3,.15a16.08,16.08,0,0,1,3.3.66,13.11,13.11,0,0,1,3.2,1.51,10,10,0,0,1,2.76,2.72,14.23,14.23,0,0,1,1.94,4.26,22.79,22.79,0,0,1,.72,6.14v16.63a21.52,21.52,0,0,1-.74,6,15,15,0,0,1-1.95,4.26,10.43,10.43,0,0,1-2.78,2.8,14.3,14.3,0,0,1-3.23,1.65,14,14,0,0,1-3.27.78A25.16,25.16,0,0,1,53,299Zm0-5.36a7,7,0,0,0,2.35-.36,3.52,3.52,0,0,0,1.67-1.23,6.35,6.35,0,0,0,1-2.33,16.6,16.6,0,0,0,.34-3.64V264.76a17.88,17.88,0,0,0-.34-3.76,6.66,6.66,0,0,0-1-2.43,3.56,3.56,0,0,0-1.67-1.31,6.51,6.51,0,0,0-2.35-.38,6.78,6.78,0,0,0-2.41.38,3.64,3.64,0,0,0-1.7,1.31,6.34,6.34,0,0,0-1,2.43,17.23,17.23,0,0,0-.34,3.76v21.35a16,16,0,0,0,.34,3.64,6,6,0,0,0,1,2.33,3.6,3.6,0,0,0,1.7,1.23A7.28,7.28,0,0,0,53,293.67Z"/><path class="cls-2" d="M76.63,251.68h12l5.81,18.17a57,57,0,0,1,1.45,5.75c.35,1.82.7,3.54,1,5.15h.28q.5-2.42,1-5.15a57,57,0,0,1,1.45-5.75l6-18.17h11.72v46.94H108.8V283.09q0-3.57.09-6.87t.23-6.06c.09-1.84.2-3.47.32-4.88s.22-2.52.32-3.35h-.68l-9.14,30.64H94.13l-9.21-30.64h-.67c.09.83.2,1.94.32,3.35s.22,3,.32,4.88.17,3.86.23,6.06.09,4.49.09,6.87v15.53H76.63Z"/><path class="cls-2" d="M127.72,251.68h22.43v5.61H136.9v14h10.23v5.6H136.9V293h13.6v5.61H127.72Z"/><path class="cls-2" d="M153.26,251.68h8.79L166.12,280l.46,6.62h.89l.85-7.44,6.52-27.54h7.33l6.24,27.54.71,7.44H190l.42-6.62,3.72-28.36H203l-8.46,46.94h-9.32l-5-22.56-1.55-9.81H178l-1.53,9.81-5.24,22.56H162Z"/><path class="cls-2" d="M222.92,299a30.29,30.29,0,0,1-3.16-.18,14.82,14.82,0,0,1-3.36-.76,13.49,13.49,0,0,1-3.21-1.63,10.68,10.68,0,0,1-2.73-2.79,14.38,14.38,0,0,1-1.89-4.27,22.5,22.5,0,0,1-.71-6.06V266.71a22.27,22.27,0,0,1,.72-6.06,14.52,14.52,0,0,1,1.93-4.23,10.48,10.48,0,0,1,2.75-2.73,12.72,12.72,0,0,1,3.22-1.55,15.63,15.63,0,0,1,3.35-.7,28.73,28.73,0,0,1,3.09-.17c.89,0,1.89,0,3,.15a15.86,15.86,0,0,1,3.29.66,13,13,0,0,1,3.21,1.51,10,10,0,0,1,2.76,2.72,14,14,0,0,1,1.93,4.26,22.36,22.36,0,0,1,.73,6.14v16.63a21.52,21.52,0,0,1-.74,6,15,15,0,0,1-2,4.26,10.58,10.58,0,0,1-2.78,2.8,14.3,14.3,0,0,1-3.23,1.65,14.12,14.12,0,0,1-3.27.78A25.16,25.16,0,0,1,222.92,299Zm0-5.36a7,7,0,0,0,2.35-.36,3.57,3.57,0,0,0,1.67-1.23,6.52,6.52,0,0,0,1-2.33,16.68,16.68,0,0,0,.33-3.64V264.76a18,18,0,0,0-.33-3.76,6.84,6.84,0,0,0-1-2.43,3.61,3.61,0,0,0-1.67-1.31,6.51,6.51,0,0,0-2.35-.38,6.74,6.74,0,0,0-2.41.38,3.59,3.59,0,0,0-1.7,1.31,6.34,6.34,0,0,0-1,2.43,17.23,17.23,0,0,0-.34,3.76v21.35a16,16,0,0,0,.34,3.64,6,6,0,0,0,1,2.33,3.56,3.56,0,0,0,1.7,1.23A7.24,7.24,0,0,0,222.92,293.67Z"/><path class="cls-2" d="M246.51,251.68h10c1.13,0,2.37,0,3.73.11a27.16,27.16,0,0,1,4.08.54,18.62,18.62,0,0,1,3.93,1.28,10.63,10.63,0,0,1,5.72,6.05,14.84,14.84,0,0,1,.89,5.43v1.18a17,17,0,0,1-2,8.73,11.24,11.24,0,0,1-5.84,4.85l9.71,18.77H267l-8-17.56h-3.44v17.56h-9Zm10.38,24.24a17.43,17.43,0,0,0,4.07-.41,5.93,5.93,0,0,0,2.7-1.39,5.67,5.67,0,0,0,1.49-2.58,15,15,0,0,0,.46-4v-3.7a10.4,10.4,0,0,0-.43-3.14,4.63,4.63,0,0,0-1.43-2.17,6.49,6.49,0,0,0-2.68-1.26,17.49,17.49,0,0,0-4.18-.41h-1.38v19Z"/><path class="cls-2" d="M283.64,251.68h9.18v20.5h.28l10.49-20.5h9.14l-11.69,22,13,24.93h-9.82L293.1,276.28h-.28v22.34h-9.18Z"/><path class="cls-2" d="M316.91,289.11a15.14,15.14,0,0,1,.23-2.79,22.22,22.22,0,0,1,.69-2.76H325v2.28a16.74,16.74,0,0,0,.3,3.35,6.69,6.69,0,0,0,1,2.46,4.32,4.32,0,0,0,1.84,1.51,7,7,0,0,0,2.82.51,6.3,6.3,0,0,0,4-1.11,4,4,0,0,0,1.38-3.26,9.74,9.74,0,0,0-.2-2,7.12,7.12,0,0,0-.67-1.83,12.36,12.36,0,0,0-1.29-1.91A30.09,30.09,0,0,0,332,281.3l-9.57-8.82a21.74,21.74,0,0,1-3.93-5.09,11.44,11.44,0,0,1-1.38-5.49,9.48,9.48,0,0,1,3.64-7.65,13.15,13.15,0,0,1,4.38-2.2,20.56,20.56,0,0,1,5.9-.78,21.58,21.58,0,0,1,6.68.88,12.07,12.07,0,0,1,4.27,2.31,8.09,8.09,0,0,1,2.25,3.2,10.35,10.35,0,0,1,.65,3.56,12.3,12.3,0,0,1-.3,2.79c-.2.85-.43,1.79-.69,2.81h-7.09V264.6a10,10,0,0,0-1.38-5.73,5.08,5.08,0,0,0-4.5-2,5.76,5.76,0,0,0-3.86,1.11,3.74,3.74,0,0,0-1.27,3,7.62,7.62,0,0,0,.19,1.79,5.91,5.91,0,0,0,.57,1.47,8.2,8.2,0,0,0,.9,1.3c.35.42.76.86,1.21,1.32l10.66,10a28.41,28.41,0,0,1,4.46,5.65,11.28,11.28,0,0,1,1.56,5.73,9.74,9.74,0,0,1-1,4.5,9.52,9.52,0,0,1-2.88,3.41A13.76,13.76,0,0,1,337,298.3a22.06,22.06,0,0,1-6,.75,23.06,23.06,0,0,1-6.82-.85,12,12,0,0,1-4.32-2.25,7.72,7.72,0,0,1-2.27-3.19A10.68,10.68,0,0,1,316.91,289.11Z"/><text class="cls-3" transform="translate(83.94 342.03)">Technologies</text><polygon class="cls-4" points="172.77 0.01 158.63 14.14 172.76 0 172.77 0.01"/><polygon class="cls-5" points="201.31 28.54 187.17 42.68 172.77 28.28 96.04 105.01 67.75 105.01 97.76 75 138.16 34.61 158.63 14.14 172.77 0.01 186.9 14.14 201.31 28.54"/><path class="cls-6" d="M272.94,95a20,20,0,0,1-37.31,10H96l20-20H235.63a20,20,0,0,1,37.31,10Z"/><rect class="cls-7" x="87.75" y="171.66" width="40" height="20"/><rect class="cls-8" x="67.75" y="125.01" width="20" height="113.3"/><polygon class="cls-9" points="177.75 125.01 177.75 218.31 157.75 238.31 157.75 145.01 147.75 145.01 147.75 238.31 127.75 238.31 127.75 125.01 177.75 125.01"/><polygon class="cls-10" points="262.94 238.31 234.65 238.31 229.33 232.99 210.35 214.01 191.36 232.99 186.04 238.31 157.75 238.31 196.2 199.86 210.35 185.72 224.49 199.86 262.94 238.31"/><path class="cls-11" d="M272.94,153.43a20,20,0,0,1-10,17.31v67.57l-20-20V170.74a20,20,0,1,1,30-17.31Z"/></g></g></svg>